HIERARCHY
ROOT joint_0
{
	OFFSET 0.000000 0.000000 0.000000
	CHANNELS 6 Xposition Yposition Zposition Zrotation Yrotation Xrotation 
	JOINT joint_1
	{
		OFFSET 1.363060 -1.794630 0.839290
		CHANNELS 3 Zrotation Yrotation Xrotation
		JOINT joint_2
		{
			OFFSET 2.448110 -6.726130 0.000000
			CHANNELS 3 Zrotation Yrotation Xrotation
			JOINT joint_3
			{
				OFFSET 2.562200 -7.039590 0.000000
				CHANNELS 3 Zrotation Yrotation Xrotation
				JOINT joint_4
				{
					OFFSET 0.157640 -0.433110 2.322550
					CHANNELS 3 Zrotation Yrotation Xrotation
					End Site
					{
						OFFSET 0.000000 0.000000 0.000000
					}
				}
			}
		}
	}
	JOINT joint_5
	{
		OFFSET -1.305520 -1.794630 0.839290
		CHANNELS 3 Zrotation Yrotation Xrotation
		JOINT joint_6
		{
			OFFSET -2.542530 -6.985550 0.000000
			CHANNELS 3 Zrotation Yrotation Xrotation
			JOINT joint_7
			{
				OFFSET -2.568260 -7.056230 0.000000
				CHANNELS 3 Zrotation Yrotation Xrotation
				JOINT joint_8
				{
					OFFSET -0.164730 -0.452590 2.363150
					CHANNELS 3 Zrotation Yrotation Xrotation
					End Site
					{
						OFFSET 0.000000 0.000000 0.000000
					}
				}
			}
		}
	}
	JOINT joint_9
	{
		OFFSET 0.028270 2.035590 -0.193380
		CHANNELS 3 Zrotation Yrotation Xrotation
		JOINT joint_10
		{
			OFFSET 0.056720 4.548850 -0.042750
			CHANNELS 3 Zrotation Yrotation Xrotation
			JOINT joint_11
			{
				OFFSET -0.054170 1.746240 0.172020
				CHANNELS 3 Zrotation Yrotation Xrotation
				JOINT joint_12
				{
					OFFSET 0.104070 1.761360 -0.123970
					CHANNELS 3 Zrotation Yrotation Xrotation
					End Site
					{
						OFFSET 0.000000 0.000000 0.000000
					}
				}
			}
			JOINT joint_13
			{
				OFFSET 3.362410 1.200890 -0.311210
				CHANNELS 3 Zrotation Yrotation Xrotation
				JOINT joint_14
				{
					OFFSET 5.783000 0.000000 0.000000
					CHANNELS 3 Zrotation Yrotation Xrotation
					JOINT joint_15
					{
						OFFSET 6.683559 0.000000 0.000000
						CHANNELS 3 Zrotation Yrotation Xrotation
						JOINT joint_16
						{
							OFFSET 0.000000 0.000000 0.000000
							CHANNELS 3 Zrotation Yrotation Xrotation
							End Site
							{
								OFFSET 0.000000 0.000000 0.000000
							}
						}
					}
				}
			}
			JOINT joint_17
			{
				OFFSET -2.136613 1.374050 -0.404650
				CHANNELS 3 Zrotation Yrotation Xrotation
				JOINT joint_18
				{
					OFFSET -0.741900 0.000000 0.000000
					CHANNELS 3 Zrotation Yrotation Xrotation
					JOINT joint_19
					{
						OFFSET -0.744170 0.000000 0.000000
						CHANNELS 3 Zrotation Yrotation Xrotation
						JOINT joint_20
						{
							OFFSET 0.000000 0.000000 0.000000
							CHANNELS 3 Zrotation Yrotation Xrotation
							End Site
							{
								OFFSET 0.000000 0.000000 0.000000
							}
						}
					}
				}
			}
		}
	}
}
MOTION
Frames: 9
Frame Time: 0.031667
0.383414 16.863363 -1.810240 -1.405944 0.763194 0.967095 -18.527346 2.795641 -4.242222 -1.183805 3.812199 9.292441 0.175767 0.918950 -0.032624 0.411963 -1.446485 -3.227322 24.123085 -1.419930 -0.915682 -0.006945 -5.485969 10.730918 0.194878 -2.227438 -6.255357 0.141282 0.102476 -0.307211 0.248635 0.210983 -9.557930 2.029965 -0.788831 10.309525 1.878142 -1.721111 17.883168 1.995451 -1.081872 9.659110 -24.357316 -6.262819 5.815277 19.547584 -22.208025 -11.655732 2.383604 -3.139709 0.748692 -7.041855 -0.251309 0.247744 22.039704 5.523320 2.353455 -28.535210 29.032123 -21.910863 1.004282 -0.698220 2.626447 7.343807 -0.254494 0.257656 
0.383318 16.859610 -1.817252 -1.379972 0.747692 0.969901 -18.831326 4.002797 -2.855511 -1.054870 2.686857 6.743201 0.252761 -0.206837 0.100969 0.309622 -1.342089 -2.551023 25.257438 -3.401849 1.202188 0.110530 -4.672486 8.324239 0.370963 -0.776100 -6.146955 0.416809 0.177524 -0.627926 0.372500 -0.060902 -10.913705 2.647347 -0.758355 12.557368 1.021669 -1.569996 19.318881 2.105923 -1.223756 9.853875 -23.508782 -3.732479 6.640329 18.920468 -21.112584 -12.131969 2.821451 -3.549514 -0.055301 -6.987261 -0.324371 0.317504 20.660590 3.494074 3.571336 -30.492017 29.239707 -24.837176 1.182322 -1.008613 1.500103 7.434907 -0.318182 0.322885 
0.359751 16.856756 -1.922252 -1.278687 2.231196 1.264987 -19.353105 4.615428 -2.511314 -0.711113 2.154264 5.194293 0.652281 -0.833671 -0.038743 0.307937 -1.403520 -2.268044 26.356338 -4.486836 2.031535 -0.197024 -4.428522 6.799254 0.247281 0.134495 -6.110461 0.694324 0.123786 -0.592820 0.631923 -0.128371 -11.647651 3.025371 -0.880638 14.800063 0.691552 -1.628362 20.484590 2.407637 -1.419502 9.954145 -21.120546 -3.704604 5.913653 19.003486 -20.411788 -12.578282 3.278376 -3.876170 -0.236240 -6.915713 -0.412431 0.403025 19.929166 3.554559 3.586707 -31.317128 28.701504 -26.394445 1.117692 -1.205130 1.037962 7.539280 -0.406154 0.408313 
0.356616 16.846096 -1.948889 -0.875224 1.924792 0.723241 -19.772054 4.256545 -2.335485 -0.630831 1.837184 4.317386 0.710022 -0.810207 -0.228893 0.407736 -1.542918 -2.125931 27.275451 -4.856475 2.352539 -0.385690 -4.352856 6.110523 0.476266 0.076734 -6.121892 0.916442 -0.093183 -0.113473 0.781893 0.007012 -12.267010 3.228924 -0.913610 16.527512 0.430751 -1.748779 21.147980 2.742362 -1.590168 9.765761 -20.270659 -2.565263 5.896454 19.376987 -19.602450 -13.225402 3.774911 -4.221513 0.373913 -6.829992 -0.513350 0.503079 19.567405 2.631268 3.623102 -31.442163 27.505368 -27.489276 1.406086 -1.443893 1.496132 7.660071 -0.514175 0.512548 
0.352688 16.855104 -1.909324 -1.206381 1.764283 0.913657 -20.194567 3.657743 -2.707774 -0.372930 1.698883 4.010932 0.812600 -0.729180 -0.036317 0.522883 -1.748911 -2.196763 28.124547 -5.253977 2.151475 -0.585551 -4.633087 5.925487 0.622214 -0.421995 -5.948909 1.058772 -0.363165 0.504137 0.908519 0.274062 -12.740766 3.532947 -1.082744 17.967851 0.266050 -1.697822 21.394581 3.115786 -1.714420 9.392374 -19.825190 -1.962975 5.997289 19.642946 -18.817484 -13.721690 4.326676 -4.679743 0.653808 -6.747163 -0.615372 0.600905 19.674504 1.663689 3.983177 -31.501494 25.929476 -28.373514 1.607603 -1.756297 1.861322 7.771408 -0.615028 0.612229 
0.353326 16.855556 -1.907733 -1.240121 1.724975 0.923689 -20.494088 3.012294 -2.986682 0.022195 1.755216 3.790436 0.872773 -0.555981 -0.152947 0.574936 -1.868268 -2.185217 28.818123 -5.283927 1.950124 -0.742167 -4.923152 5.849714 0.674429 -0.598526 -6.047051 1.161092 -0.540768 0.898846 1.065137 0.440684 -13.055357 3.826045 -1.095903 19.315366 0.046889 -1.808982 21.654803 3.490363 -1.846946 9.003761 -19.761451 -1.592900 6.099691 20.021833 -17.959077 -14.381063 4.776924 -5.031079 0.967447 -6.692844 -0.690461 0.670457 20.079315 0.997391 4.316521 -31.240114 24.489869 -28.706495 1.719555 -1.974853 2.490443 7.849590 -0.681116 0.679918 
0.353497 16.856457 -1.906577 -1.280150 1.729442 0.936999 -21.083647 2.931036 -3.047582 0.229087 1.598266 3.744615 0.968934 -1.071243 -0.225475 0.610694 -1.809029 -1.603245 29.696177 -5.615741 2.213899 -0.604309 -5.274682 5.991830 0.787914 -0.505997 -6.099165 1.335322 -0.651744 1.040721 1.241037 0.675550 -13.357337 3.943898 -1.088963 20.640548 -0.153479 -1.892697 22.221532 3.807902 -1.949676 9.013457 -19.923854 -1.454291 6.407718 20.260922 -17.101915 -14.771605 5.428545 -5.379543 1.277848 -6.609966 -0.786222 0.761933 20.593450 0.665228 4.672211 -30.942398 23.274855 -28.698786 1.856495 -2.270132 2.928413 7.946913 -0.779953 0.775152 
0.354524 16.854355 -1.908769 -1.262170 1.675628 0.897137 -20.944244 2.250653 -3.490776 0.392048 1.560136 4.150874 0.901843 -1.178813 -0.092756 0.652798 -1.829785 -1.507478 29.543548 -5.585082 1.729203 -0.739824 -5.545442 6.327444 0.933804 -0.826510 -6.076566 1.444318 -0.634169 0.913459 1.520238 0.710727 -12.789996 4.016452 -0.950149 20.757506 -0.283057 -2.017872 22.084284 4.206516 -2.058902 8.578516 -20.476716 -1.349653 6.771118 20.676709 -17.118211 -14.721539 5.653819 -5.572450 1.318361 -6.577171 -0.799862 0.775949 20.825345 0.279500 4.665546 -31.013146 22.916225 -28.165286 1.971945 -2.311459 3.067235 7.973652 -0.793158 0.785825 
0.355215 16.853754 -1.910480 -1.258266 1.650171 0.888190 -20.723686 1.555661 -3.743861 0.752728 1.567326 4.606807 0.871142 -1.170806 0.163030 0.746818 -1.960506 -1.685271 29.149997 -5.421484 1.177285 -1.161428 -5.619461 6.411174 1.047961 -1.363315 -5.995027 1.472226 -0.688492 0.978253 1.753774 0.721259 -12.139770 4.250406 -0.962081 20.770326 -0.248296 -2.162694 21.522248 4.549590 -2.213879 7.999673 -21.389375 -1.149546 7.308884 21.344883 -17.351524 -14.899230 5.870710 -5.786113 1.105190 -6.547314 -0.808233 0.786952 21.049235 0.053621 4.675039 -31.562375 22.874703 -28.156057 2.117306 -2.308466 3.192815 8.001204 -0.799025 0.791451 
